# xmcd CD database file generated by OrangeCD 5.9
#
# Track frame offsets:
#	150
#	19560
#	46799
#	75129
#	99531
#	114014
#	136624
#	159502
#	182014
#	197228
#	217179
#	228817
#	262682
#
# Disc length: 3798 seconds
#
# Revision: 0
# Processed by: cddbd v1.5.1PL0 Copyright (c) Steve Scherf et al.
# Submitted via: OrangeCD 5.9
#
DISCID=8e0ed40d
DTITLE=Stanton Moore - All Kooked Out
DYEAR=1900
DGENRE=Blues
TTITLE0=Tchfunkta
TTITLE1=Common Ground
TTITLE2=Green Chimneys
TTITLE3=Blues for Ben
TTITLE4=Kooks on Parade
TTITLE5=Nalgas
TTITLE6=Witch Doctor
TTITLE7=Boogaloo Boogie
TTITLE8=Nobodys Blues
TTITLE9=Stanton Hits the Bottle
TTITLE10=Farmstead Antiques
TTITLE11=Angel Nemali
TTITLE12=Honey Island
EXTD=
EXTT0=
EXTT1=
EXTT2=
EXTT3=
EXTT4=
EXTT5=
EXTT6=
EXTT7=
EXTT8=
EXTT9=
EXTT10=
EXTT11=
EXTT12=
PLAYORDER=
